# xmcd CD database file
#
# Track frame offsets:
#	150
#	28288
#	46099
#	68175
#	88726
#	112983
#	128885
#	153559
#	174702
#	198704
#	220939
#	247251
#	264865
#	304565
#
# Disc length: 4378 seconds
#
# Revision: 0
# Processed by: cddbd v1.5.2PL0 Copyright (c) Steve Scherf et al.
# Submitted via: CDex 1.51
#
DISCID=ca11180e
DTITLE=Kashmir - the aftermath
DYEAR=2005
DGENRE=Salsa
TTITLE0=intro/melpomene
TTITLE1=rocket brothers
TTITLE2=petite machine
TTITLE3=make it grand
TTITLE4=miss you
TTITLE5=in the sand
TTITLE6=big fresh
TTITLE7=mom in love, daddy in space
TTITLE8=the aftermath
TTITLE9=surfing the warm industry
TTITLE10=lampsahde
TTITLE11=cinnamon girl
TTITLE12=small poem of old friend
TTITLE13=cellophane
EXTD=YEAR: 2005
EXTT0=
EXTT1=
EXTT2=
EXTT3=
EXTT4=
EXTT5=
EXTT6=
EXTT7=
EXTT8=
EXTT9=
EXTT10=
EXTT11=
EXTT12=
EXTT13=
PLAYORDER=
